# xmcd
#
# Track frame offsets:
#	150
#	28985
#	59595
#	85575
#	107605
#	127500
#	160472
#	186852
#	203160
#	230155
#
# Disc length: 3349 seconds
#
# Revision: 0
# Processed by: cddbd v1.5.2PL0 Copyright (c) Steve Scherf et al.
# Submitted via: EZCDAudioConverter 8.0.2.1
#
DISCID=830d130a
DTITLE=Băng Châu - Nối Lại Tình Xưa
DYEAR=1988
DGENRE=Miscellaneous
TTITLE0=Băng Châu, T. Hải - Nối Lại Tình Xưa
TTITLE1=Băng Châu - Xa vắng
TTITLE2=Băng Châu - Hai mùa mưa
TTITLE3=Băng Châu - Đường trần vạn nẻo
TTITLE4=Băng Châu - Rừng lá thấp
TTITLE5=Băng Châu - Chuyến đi về sáng
TTITLE6=Băng Châu - Gõ cửa
TTITLE7=Băng Châu, T. Hải - Phút đầu tiên
TTITLE8=Băng Châu - Phút cuối
TTITLE9=Băng Châu - Thiệp hồng anh viết tên em
EXTD=
EXTT0=
EXTT1=
EXTT2=
EXTT3=
EXTT4=
EXTT5=
EXTT6=
EXTT7=
EXTT8=
EXTT9=
PLAYORDER=
